<svg xmlns="http://www.w3.org/2000/svg" viewBox="0 0 900 260" width="900" height="260"><rect width="900" height="260" rx="32" fill="#0F172A"/><svg x="40" y="66" width="128" height="128" viewBox="0 0 256 256" xmlns="http://www.w3.org/2000/svg">
  <defs>
    <linearGradient id="g" x1="44" y1="26" x2="211" y2="221" gradientUnits="userSpaceOnUse">
      <stop offset="0" stop-color="#6366F1"/>
      <stop offset="0.55" stop-color="#7C5CFF"/>
      <stop offset="1" stop-color="#A78BFA"/>
    </linearGradient>
    <linearGradient id="fold" x1="70" y1="170" x2="190" y2="230" gradientUnits="userSpaceOnUse">
      <stop offset="0" stop-color="#F8FAFC" stop-opacity="0.96"/>
      <stop offset="1" stop-color="#DDD6FE" stop-opacity="0.92"/>
    </linearGradient>
    <linearGradient id="bg" x1="0" y1="0" x2="256" y2="256" gradientUnits="userSpaceOnUse">
      <stop stop-color="#FFFFFF"/>
      <stop offset="1" stop-color="#F5F6FA"/>
    </linearGradient>
    <filter id="s" x="-20%" y="-20%" width="140%" height="140%">
      <feDropShadow dx="0" dy="10" stdDeviation="14" flood-color="#0F172A" flood-opacity="0.10"/>
    </filter>
  </defs>
  
  <g filter="none">
    <path d="M54 206V72c0-30 22-52 54-52h55c29 0 51 21 51 49 0 23-13 40-36 49L82 156c-18 7-28 23-28 50Z" fill="url(#g)"/>
    <path d="M54 206c0-27 10-43 28-50l96-38c-10 14-25 30-43 45l-51 43H54Z" fill="url(#fold)"/>
    <path d="M84 206h104c-7-25-26-44-53-43L84 206Z" fill="#C4B5FD" opacity="0.35"/>
  </g>
</svg><text x="205" y="151" font-family="Inter, ui-sans-serif, -apple-system, BlinkMacSystemFont, 'Segoe UI', sans-serif" font-size="72" font-weight="700" letter-spacing="-2.6" fill="#FFFFFF">ReachNote</text></svg>